<?xml version="1.0" standalone="no"?>
<!DOCTYPE svg PUBLIC "-//W3C//DTD SVG 20010904//EN"
 "http://www.w3.org/TR/2001/REC-SVG-20010904/DTD/svg10.dtd">
<svg version="1.0" xmlns="http://www.w3.org/2000/svg"
 width="2000.000000pt" height="2000.000000pt" viewBox="0 0 2000.000000 2000.000000"
 preserveAspectRatio="xMidYMid meet">

<g transform="translate(0.000000,2000.000000) scale(0.100000,-0.100000)"
fill="#000000" stroke="none">
<path d="M12850 17890 c-140 -14 -282 -53 -506 -141 -248 -97 -298 -178 -185
-301 l49 -53 -39 -44 c-77 -87 -85 -187 -29 -352 28 -80 30 -97 30 -233 0 -81
-5 -190 -11 -244 -7 -53 -12 -200 -13 -327 l-1 -230 27 -45 c14 -25 72 -90
127 -146 l101 -101 -20 -104 c-10 -57 -21 -117 -24 -134 -30 -160 -47 -249
-49 -252 -2 -1 -131 -11 -287 -23 -635 -46 -1046 -91 -1101 -121 -9 -5 -55
-66 -102 -136 -270 -408 -400 -684 -512 -1091 l-35 -124 -123 -166 c-177 -239
-250 -341 -329 -461 -38 -58 -89 -126 -113 -151 -24 -25 -49 -58 -54 -73 -47
-125 72 -558 190 -692 18 -20 49 -45 69 -55 52 -27 177 -50 268 -50 l79 0 319
221 c175 121 326 227 335 235 8 8 19 14 23 14 10 0 7 -608 -4 -698 -5 -42 -27
-230 -49 -417 -100 -837 -142 -1237 -131 -1250 6 -7 42 -37 81 -66 38 -30 72
-63 74 -74 2 -11 11 -119 20 -240 90 -1238 196 -2553 231 -2860 193 -1699 254
-2357 269 -2865 7 -270 48 -582 109 -843 l24 -102 -49 -65 c-60 -80 -79 -133
-79 -221 0 -127 18 -108 -263 -275 -138 -82 -281 -161 -318 -175 -175 -68
-256 -157 -216 -236 71 -137 379 -246 652 -230 121 7 317 44 481 92 103 29
139 46 240 108 188 117 227 134 335 146 184 21 213 41 255 171 19 59 28 114
31 180 4 85 2 105 -25 190 -17 52 -53 172 -81 265 -47 162 -49 175 -45 265 7
162 24 1210 25 1505 0 343 -7 427 -115 1290 -27 209 -47 417 -50 515 -4 91 -9
224 -12 295 -7 178 -52 1424 -59 1615 -3 85 -8 220 -11 300 -3 80 -3 142 0
139 6 -6 30 -82 231 -734 599 -1945 565 -1826 1152 -4130 l107 -420 6 -395 6
-395 32 -80 c18 -44 53 -117 78 -163 80 -149 210 -459 249 -597 58 -201 195
-379 350 -456 206 -101 510 2 586 198 29 75 31 202 5 288 -36 120 -178 377
-334 605 l-65 95 22 80 c36 132 71 307 71 358 0 41 -18 82 -129 305 l-129 258
-66 569 c-36 314 -95 822 -131 1130 -35 308 -105 893 -154 1300 l-90 740 -16
430 c-9 237 -31 805 -49 1263 l-31 834 65 48 66 49 -8 93 c-5 51 -27 284 -49
518 -22 234 -45 481 -51 550 -9 110 -7 166 16 470 15 190 38 491 51 670 14
179 27 350 29 380 3 30 13 162 22 293 10 130 20 237 23 237 3 -1 56 -77 116
-171 61 -93 209 -322 330 -508 199 -305 226 -352 279 -482 104 -255 170 -380
226 -433 72 -68 125 -88 241 -94 108 -5 194 7 318 44 73 22 91 32 136 78 95
94 143 229 152 423 7 150 -2 186 -72 297 -38 61 -61 115 -88 202 -55 184 -91
259 -260 541 -202 338 -226 387 -282 573 -148 500 -284 728 -530 889 -172 112
-490 260 -840 389 -153 56 -352 126 -362 127 -4 1 -56 243 -77 365 l-24 134
58 63 c47 51 62 77 83 141 14 42 30 104 36 137 7 33 14 70 16 82 4 17 16 24
58 33 29 6 81 24 114 39 196 93 239 264 103 411 l-39 42 24 157 c14 86 30 226
37 311 19 257 -7 348 -141 480 -141 139 -368 234 -620 260 -112 11 -147 11
-261 0z m-422 -634 c124 -75 196 -101 330 -121 168 -26 486 -13 658 25 26 6
49 8 52 6 3 -3 -9 -50 -27 -105 -47 -151 -49 -177 -12 -231 17 -25 58 -74 91
-109 l59 -63 -5 -57 c-3 -31 -2 -74 3 -96 8 -35 13 -40 39 -43 42 -4 67 27 74
91 5 50 7 53 50 74 l44 23 33 -32 c66 -64 89 -150 59 -221 -32 -78 -164 -159
-280 -173 l-52 -6 -17 -100 c-9 -55 -28 -132 -42 -171 -21 -62 -33 -81 -93
-138 -126 -121 -377 -268 -524 -306 -81 -21 -129 -12 -223 44 -151 91 -410
325 -448 405 -15 32 -17 65 -16 225 1 104 7 249 15 323 7 74 13 246 14 382 0
219 2 254 19 298 24 63 69 140 82 140 5 0 58 -29 117 -64z m932 -1613 c6 -38
14 -88 17 -113 l5 -45 -105 -63 c-97 -58 -326 -172 -345 -172 -5 0 -60 -101
-123 -224 -63 -123 -116 -223 -117 -221 -2 2 -14 103 -27 225 -12 121 -26 224
-29 228 -4 4 -57 41 -119 82 -62 41 -113 83 -115 93 -5 23 28 207 37 207 3 0
39 -24 78 -54 91 -67 197 -123 250 -132 24 -4 65 0 104 10 81 20 302 129 394
194 39 28 73 51 76 51 4 1 12 -29 19 -66z m60 -320 l25 -117 210 -73 c413
-145 771 -302 975 -428 259 -161 397 -383 540 -867 60 -205 87 -260 295 -607
97 -164 170 -298 194 -359 43 -108 54 -142 48 -142 -2 0 -61 78 -130 173 -68
94 -220 296 -337 447 -182 237 -221 293 -277 405 -36 72 -67 132 -69 134 -2 2
-15 -4 -29 -13 l-26 -17 -55 116 c-81 173 -137 308 -173 420 -71 219 -79 235
-155 311 -51 50 -94 82 -151 110 -44 22 -126 64 -183 93 -154 78 -191 89 -345
111 l-141 21 -71 -22 c-132 -40 -235 -97 -235 -129 0 -5 9 -19 20 -30 15 -15
33 -20 78 -20 32 0 63 -5 69 -11 5 -5 36 -13 67 -16 35 -4 56 -10 56 -19 0 -7
14 -24 31 -38 23 -19 42 -26 75 -26 44 0 44 0 44 -35 0 -24 9 -44 28 -66 25
-28 35 -32 106 -38 l79 -6 23 -80 c13 -44 24 -86 24 -93 0 -20 -29 -9 -190 73
-80 40 -173 83 -207 94 -102 34 -176 26 -209 -24 -16 -24 -16 -29 -1 -60 19
-41 51 -64 197 -146 89 -49 130 -80 180 -133 212 -224 251 -252 390 -277 l68
-12 72 -161 c81 -182 82 -159 -17 -220 l-52 -31 106 -180 c97 -166 114 -203
218 -478 62 -164 109 -295 105 -290 -4 4 -139 211 -300 458 -322 495 -299 460
-304 454 -2 -2 -13 -130 -24 -284 -12 -154 -47 -615 -78 -1025 l-57 -745 23
-245 c12 -135 39 -418 59 -629 l37 -383 -105 -75 c-401 -284 -617 -383 -1106
-508 -193 -50 -610 -145 -634 -145 -5 0 -17 26 -26 58 -9 31 -23 81 -31 111
-8 29 -17 51 -20 49 -2 -3 -18 -51 -35 -109 -18 -57 -34 -107 -38 -111 -3 -4
-67 8 -142 26 -160 38 -238 75 -445 211 -147 96 -433 301 -592 424 -88 69 -92
74 -87 104 3 18 25 217 50 442 26 226 64 561 86 745 52 433 58 528 59 867 l0
281 43 33 c23 18 65 55 94 81 28 26 57 48 63 48 17 0 150 87 188 123 30 29 32
35 32 96 -1 37 -5 86 -9 109 -9 44 -8 44 27 59 19 8 65 24 101 35 36 11 100
38 142 59 41 21 82 39 90 39 26 0 118 59 142 92 13 18 39 62 56 98 41 85 123
196 161 218 16 9 58 33 92 52 35 19 87 58 116 86 l53 51 95 5 c52 3 94 3 94 1
0 -2 -12 -95 -26 -206 -33 -263 -32 -242 -9 -242 18 0 22 18 50 225 22 166 35
232 49 253 16 24 17 34 8 79 -8 42 -5 90 13 238 13 101 21 188 19 192 -12 19
-34 5 -39 -24 -7 -46 -35 -269 -35 -285 0 -7 -33 9 -72 36 -40 27 -126 77
-191 111 l-118 62 -72 -7 c-232 -21 -434 -61 -469 -92 -24 -22 -144 -268 -214
-442 -57 -137 -61 -145 -117 -192 -46 -39 -63 -47 -85 -43 -21 4 -56 -13 -161
-76 l-133 -81 6 83 c35 431 81 844 112 1002 11 56 13 81 5 89 -8 8 -14 8 -22
0 -21 -21 -61 -302 -105 -736 -4 -33 -10 -55 -14 -50 -15 14 -68 185 -100 319
-39 163 -35 153 -58 147 -19 -5 -19 -7 4 -106 38 -164 93 -337 126 -399 28
-53 30 -62 23 -123 -3 -36 -10 -65 -14 -65 -30 0 -144 171 -226 338 -35 73
-54 102 -67 102 -10 0 -18 -5 -18 -10 0 -18 121 -252 167 -325 51 -79 99 -133
128 -145 18 -7 20 -14 15 -71 l-5 -64 -75 -8 c-205 -21 -410 -49 -455 -62 -56
-15 -359 -145 -477 -204 -43 -21 -75 -33 -71 -27 40 69 259 376 394 554 70 92
81 111 99 185 49 194 153 480 230 631 85 169 204 370 307 521 l69 100 84 17
c101 20 557 66 920 93 36 2 137 9 225 15 88 6 165 13 170 14 6 2 19 54 30 115
10 61 22 111 25 111 4 0 53 -31 111 -69 l104 -68 24 -234 c13 -129 26 -259 30
-289 l7 -55 94 185 c51 102 114 226 139 275 l46 90 170 85 c94 47 193 100 220
117 28 18 52 33 55 33 3 0 16 -53 30 -117z m270 -332 c22 -7 18 -9 -32 -24
-31 -10 -87 -33 -124 -52 -46 -24 -80 -35 -110 -35 -24 0 -44 4 -44 8 0 13 60
44 154 78 94 34 113 37 156 25z m273 -51 c32 -12 56 -24 54 -26 -6 -7 -405
-64 -443 -64 -91 0 -4 52 161 96 102 27 144 26 228 -6z m244 -121 l72 -45
-292 1 c-299 0 -347 6 -312 35 24 20 286 59 380 57 76 -3 84 -5 152 -48z m178
-111 c60 -32 98 -95 170 -280 20 -54 41 -98 46 -98 5 0 9 -14 9 -31 0 -32 48
-152 138 -342 30 -64 53 -119 51 -121 -2 -1 -84 -51 -182 -109 l-178 -107 -37
82 c-20 46 -55 123 -77 172 l-41 90 -71 12 c-39 6 -97 23 -128 38 -60 27 -153
110 -213 189 -47 62 -139 132 -270 203 -137 76 -182 131 -119 148 70 19 140
-4 340 -108 143 -74 190 -91 239 -84 l25 3 -28 100 c-16 55 -29 106 -29 113 0
9 26 12 94 12 l95 0 5 -42 c3 -24 13 -103 21 -177 28 -233 70 -343 158 -417
52 -44 138 -70 160 -48 13 14 -7 34 -35 34 -42 0 -80 23 -126 76 -78 88 -90
129 -125 422 l-22 183 -180 5 c-99 2 -192 7 -206 10 -34 7 -62 37 -57 61 4 23
99 31 358 29 149 -1 191 -5 215 -18z m-2308 -504 c-3 -3 -12 -4 -19 -1 -8 3
-5 6 6 6 11 1 17 -2 13 -5z m-136 -28 c-98 -20 -127 -35 -101 -51 6 -4 85 8
176 25 l165 32 107 -38 c59 -22 112 -39 117 -40 14 0 92 -43 81 -44 -6 0 -89
16 -187 35 l-177 35 -136 -39 c-75 -21 -139 -41 -143 -44 -3 -3 -3 -13 0 -21
5 -11 30 -7 143 26 l138 40 211 -43 c179 -36 257 -60 242 -76 -2 -2 -76 6
-163 17 -268 33 -290 32 -444 -30 -101 -40 -130 -56 -127 -69 4 -20 7 -20 158
39 l126 50 109 -10 c141 -13 345 -40 356 -46 12 -8 10 -42 -3 -50 -6 -4 -93
-10 -193 -14 -179 -8 -183 -8 -309 -51 l-129 -44 -62 -150 c-149 -357 -170
-379 -445 -475 -75 -26 -171 -60 -213 -76 -43 -15 -80 -25 -83 -22 -3 3 -10
41 -17 84 -8 61 -8 92 2 139 14 67 6 58 186 203 95 78 112 95 123 133 18 60
164 389 208 467 41 75 56 83 205 111 146 27 212 25 79 -3z m2998 -464 c33 -66
86 -152 118 -193 32 -41 95 -121 139 -179 44 -58 110 -143 145 -190 208 -271
452 -619 505 -720 25 -48 29 -68 32 -158 9 -252 -99 -472 -253 -517 -120 -34
-209 -47 -304 -43 -110 4 -169 27 -229 86 -69 70 -228 434 -476 1094 -91 244
-115 296 -194 431 -50 84 -93 160 -96 168 -4 10 74 61 267 176 150 89 275 162
279 163 5 0 35 -53 67 -118z m-2629 99 c0 -11 -132 -102 -196 -134 -70 -35
-153 -143 -223 -290 -20 -41 -83 -107 -102 -107 -3 0 16 44 43 98 27 53 73
155 102 227 l52 129 130 43 c123 41 194 53 194 34z m-1147 -421 c-30 -22 -44
-41 -54 -77 -20 -70 -16 -203 9 -296 31 -114 52 -137 149 -166 l56 -16 -55
-37 c-30 -20 -77 -47 -104 -61 -27 -14 -62 -40 -79 -57 -34 -36 -206 -160
-588 -424 l-259 -179 -101 6 c-122 7 -214 36 -258 79 -64 64 -149 277 -183
457 -20 106 -20 174 0 217 30 62 182 154 420 254 54 23 128 55 164 72 36 17
79 34 95 39 46 14 273 46 430 60 l140 12 120 73 c125 76 168 96 98 44z m193
-431 c5 -60 3 -88 -5 -93 -6 -4 -11 -3 -11 2 0 5 -25 14 -55 21 -37 8 -65 22
-85 42 -48 48 -41 60 53 96 45 17 85 28 89 24 4 -4 11 -45 14 -92z"/>
<path d="M12353 16990 c-69 -8 -116 -32 -111 -58 6 -36 68 -52 220 -59 l144
-6 27 32 c55 66 31 79 -178 95 -22 1 -68 0 -102 -4z"/>
<path d="M12833 16919 c-8 -8 -6 -22 6 -49 14 -34 22 -40 71 -54 171 -48 274
-57 310 -28 l21 17 -20 27 c-12 15 -45 36 -75 47 -114 42 -288 65 -313 40z"/>
<path d="M12425 16700 c-23 -44 -19 -104 8 -136 42 -49 87 -8 87 79 0 81 -63
119 -95 57z"/>
<path d="M12916 16661 c-41 -45 -27 -155 21 -168 40 -9 63 25 63 93 0 79 -44
119 -84 75z"/>
<path d="M12532 16423 c-35 -131 -44 -190 -33 -210 13 -26 96 -53 162 -53 95
0 181 35 153 62 -3 3 -26 -1 -51 -8 -78 -24 -217 -11 -229 20 -2 6 9 65 25
131 28 115 28 134 0 135 -3 0 -15 -35 -27 -77z"/>
<path d="M13029 16121 c-103 -110 -239 -140 -419 -91 -31 8 -45 9 -54 0 -28
-28 74 -55 209 -55 105 0 114 2 177 33 95 46 199 163 145 162 -7 0 -33 -22
-58 -49z"/>
<path d="M13247 15043 c-121 -136 -137 -158 -124 -170 17 -17 10 -23 195 186
79 89 99 117 91 128 -6 7 -14 13 -18 12 -3 0 -68 -70 -144 -156z"/>
<path d="M12303 14993 c11 -142 89 -387 146 -463 16 -20 22 -22 35 -11 14 11
13 17 -8 49 -61 98 -119 288 -132 429 -6 64 -9 73 -27 73 -19 0 -20 -5 -14
-77z"/>
<path d="M10698 14545 c-3 -3 -2 -25 3 -48 4 -23 13 -68 19 -99 9 -47 15 -58
31 -58 23 0 23 0 0 115 -12 61 -22 91 -32 93 -8 1 -18 0 -21 -3z"/>
<path d="M10551 13666 c-12 -14 19 -45 106 -105 33 -22 57 -21 51 4 -2 10
-132 115 -142 115 -2 0 -9 -6 -15 -14z"/>
<path d="M12476 13168 c-3 -18 -24 -168 -46 -333 -50 -366 -84 -584 -110 -690
-22 -95 -51 -295 -79 -565 -12 -107 -23 -212 -26 -233 -4 -28 -1 -39 10 -43 9
-4 18 -4 21 -1 3 3 19 122 35 264 38 341 56 471 79 568 23 98 40 199 79 470
27 190 81 582 81 591 0 2 -9 4 -20 4 -14 0 -21 -9 -24 -32z"/>
<path d="M11493 12148 c-400 -489 -459 -565 -447 -578 12 -13 16 -12 33 5 10
11 202 245 426 520 225 275 426 522 448 548 32 39 38 51 26 58 -8 5 -16 9 -19
9 -3 0 -213 -253 -467 -562z"/>
<path d="M13121 12686 c-14 -17 18 -82 176 -358 46 -80 49 -83 71 -70 9 6 -1
31 -39 98 -28 49 -78 139 -110 199 -77 145 -81 151 -98 131z"/>
<path d="M13422 12147 c-9 -10 1 -30 44 -88 74 -97 72 -96 88 -79 13 13 7 26
-46 95 -33 44 -64 81 -68 83 -4 1 -12 -3 -18 -11z"/>
<path d="M11637 12069 c-9 -13 -68 -112 -132 -219 -65 -107 -119 -198 -121
-202 -3 -4 4 -12 15 -17 17 -10 32 10 151 211 115 194 130 223 117 236 -13 13
-17 11 -30 -9z"/>
<path d="M13090 11655 c-14 -17 -23 -6 222 -264 110 -116 129 -133 143 -121
17 14 33 -5 -226 268 -109 116 -127 131 -139 117z"/>
<path d="M11191 11329 c-57 -93 -135 -218 -173 -276 -63 -96 -76 -133 -49
-133 14 0 72 87 228 340 99 161 129 217 121 227 -6 7 -13 13 -17 13 -3 0 -53
-77 -110 -171z"/>
<path d="M13535 11180 c-9 -15 22 -54 118 -149 76 -75 107 -92 107 -60 0 12
-200 219 -211 219 -4 0 -11 -5 -14 -10z"/>
<path d="M12185 11048 c-17 -150 -95 -1029 -95 -1070 0 -20 5 -28 18 -28 17 0
22 44 66 533 26 292 50 551 53 575 5 38 4 42 -15 42 -17 0 -21 -8 -27 -52z"/>
<path d="M14900 13509 c-84 -79 -214 -166 -312 -209 -43 -18 -78 -36 -78 -39
0 -3 4 -12 9 -20 8 -12 27 -6 106 32 202 98 442 300 352 297 -7 -1 -41 -28
-77 -61z"/>
<path d="M10888 13198 c-7 -24 -12 -91 -13 -149 0 -102 1 -109 35 -175 25 -50
49 -78 85 -106 45 -34 51 -36 65 -22 13 14 12 18 -10 32 -56 38 -80 66 -107
120 -25 51 -28 68 -27 152 0 52 5 112 11 133 10 33 9 38 -7 47 -17 9 -21 5
-32 -32z"/>
<path d="M6973 17450 c-176 -18 -349 -67 -452 -126 -147 -85 -363 -283 -445
-407 -58 -88 -113 -215 -136 -308 -11 -46 -51 -304 -90 -574 -72 -500 -119
-797 -144 -904 -23 -98 0 -159 89 -238 30 -27 89 -66 130 -87 l75 -38 -57 -37
c-96 -62 -145 -126 -184 -239 -23 -66 -238 -1027 -308 -1377 -61 -303 -111
-592 -111 -643 0 -63 20 -113 64 -160 l42 -45 -48 -80 c-59 -99 -79 -160 -65
-202 10 -33 425 -451 468 -472 13 -6 68 -15 122 -18 94 -7 97 -8 91 -28 -18
-57 -70 -154 -101 -186 -42 -44 -69 -95 -83 -155 -13 -57 -1 -91 46 -132 l36
-30 -56 -131 c-114 -272 -208 -580 -270 -883 -112 -545 -112 -893 0 -2430 36
-494 47 -693 48 -895 1 -306 5 -287 -129 -604 -91 -218 -145 -376 -172 -510
-16 -78 -18 -154 -17 -781 1 -382 7 -810 13 -950 6 -140 13 -331 16 -425 6
-167 19 -413 31 -590 6 -85 3 -101 -44 -290 -114 -450 -119 -619 -26 -805 93
-186 213 -241 356 -163 124 68 201 212 250 469 35 187 31 381 -15 709 l-36
261 39 174 c22 96 62 272 90 390 27 118 68 296 90 395 176 785 390 1664 464
1900 50 164 103 389 197 835 78 374 349 1766 349 1794 0 66 52 -288 184 -1244
85 -616 116 -872 116 -962 0 -37 -15 -179 -34 -315 -58 -414 -69 -551 -63
-788 5 -202 6 -216 45 -380 81 -341 115 -476 192 -765 136 -512 229 -882 240
-959 12 -88 1 -241 -36 -496 -49 -333 -44 -414 27 -451 47 -24 178 -28 338
-11 l134 15 157 -34 c220 -47 274 -54 458 -54 329 0 519 40 538 115 17 69 -73
143 -406 335 -208 120 -279 170 -348 245 -72 79 -170 214 -233 324 l-46 80 -6
318 c-11 499 -8 2274 3 2523 6 124 18 270 26 325 63 416 123 1162 199 2455 40
684 51 1278 27 1490 -25 214 -85 564 -108 624 -3 8 11 20 37 31 63 29 73 51
66 148 -3 45 -17 141 -31 212 -22 120 -25 160 -30 540 -4 225 -2 405 2 400 5
-6 30 -42 55 -81 108 -165 192 -190 354 -109 74 37 137 93 255 228 116 134
185 291 209 475 13 105 6 149 -49 331 -43 141 -116 425 -206 804 l-53 227 72
73 c107 107 146 199 175 412 6 51 24 121 41 162 46 114 109 403 109 504 0 31
-6 51 -16 60 -17 14 -26 7 -65 -51 -15 -22 -15 -19 -8 47 4 39 9 104 11 143 2
61 0 74 -17 86 -10 8 -24 14 -30 14 -8 0 -10 17 -8 53 6 68 -15 131 -44 135
-27 4 -64 -44 -94 -121 -22 -58 -38 -62 -39 -9 0 32 -28 82 -45 82 -24 0 -43
-40 -80 -175 -20 -72 -52 -185 -70 -253 -50 -177 -215 -542 -246 -542 -4 0
-24 11 -44 24 -73 50 -186 56 -267 15 -41 -21 -55 -51 -44 -95 8 -31 73 -63
129 -64 53 0 100 -22 130 -61 35 -47 45 -77 66 -199 10 -58 27 -126 37 -150
14 -32 19 -61 16 -102 -2 -32 -7 -58 -10 -57 -4 0 -62 112 -130 248 -81 162
-136 261 -160 287 -60 63 -141 134 -152 134 -6 0 -32 11 -58 24 -108 54 -133
59 -357 60 -222 2 -318 15 -417 58 -41 18 -48 25 -54 57 -6 32 19 385 33 451
5 26 7 26 51 19 80 -13 295 -21 327 -11 62 18 100 113 136 339 25 152 30 161
109 226 107 87 106 135 -6 264 -97 111 -120 190 -92 324 11 55 3 114 -33 228
-3 9 21 24 71 45 73 31 75 32 78 69 2 21 -6 68 -18 105 -75 234 -285 431 -544
511 -148 46 -406 69 -573 51z m497 -862 c21 -40 44 -74 52 -76 7 -1 96 31 196
73 100 41 186 75 191 75 19 0 45 -104 42 -170 -8 -215 -7 -232 22 -288 15 -29
50 -77 77 -107 59 -65 84 -110 76 -139 -3 -12 -36 -49 -74 -83 -38 -34 -74
-74 -80 -90 -6 -15 -18 -75 -27 -133 -29 -197 -63 -298 -107 -321 -44 -23
-391 9 -564 52 l-42 11 -21 77 c-13 46 -25 137 -31 226 -11 168 -29 285 -67
430 -14 55 -27 109 -30 120 -3 17 23 35 161 114 111 64 166 101 170 115 3 12
6 61 6 110 0 49 3 86 6 83 4 -3 24 -39 44 -79z m1860 -1038 c0 -25 -5 -61 -10
-80 -6 -19 -24 -100 -40 -180 -16 -80 -48 -217 -70 -304 -30 -122 -37 -162
-28 -168 7 -4 16 -4 19 0 11 12 35 106 89 342 27 124 52 235 55 248 3 12 13
22 23 22 19 0 19 4 2 -195 -11 -119 -42 -250 -90 -372 -22 -58 -26 -79 -17
-85 6 -4 14 -8 17 -8 3 0 39 82 80 181 87 212 104 241 95 159 -11 -96 -64
-318 -99 -413 -19 -51 -37 -119 -41 -152 -9 -82 -40 -222 -58 -265 -25 -58
-102 -155 -151 -190 -25 -19 -46 -37 -46 -41 0 -40 211 -881 267 -1069 42
-137 47 -166 47 -245 -1 -137 -55 -311 -134 -432 -73 -110 -138 -136 -232 -90
-68 33 -187 143 -227 208 -85 137 -110 318 -73 534 28 161 37 248 66 600 39
463 42 535 23 571 -9 17 -23 68 -32 115 -32 173 -37 190 -69 236 -39 57 -86
82 -171 93 -71 9 -95 22 -95 52 0 13 14 25 46 40 72 31 152 18 240 -42 l32
-21 31 27 c35 29 72 97 161 299 44 98 77 198 125 377 36 134 70 247 74 251 12
12 21 -46 22 -138 0 -87 -25 -233 -73 -418 -23 -90 -27 -122 -19 -130 9 -9 14
-8 21 3 15 25 51 167 90 360 62 301 149 489 150 320z m-1970 -224 c45 -8 65
-17 65 -27 -1 -52 -18 -189 -24 -189 -17 0 -141 199 -141 225 0 8 27 5 100 -9z
m36 -417 l-1 -120 31 -28 c21 -19 59 -36 117 -51 l86 -23 -6 -51 c-23 -233
-149 -372 -346 -384 -74 -4 -81 -3 -154 33 -57 28 -96 58 -157 119 -72 73
-180 213 -188 244 -2 7 33 25 84 42 160 54 328 156 454 274 38 36 72 65 75 66
3 0 5 -54 5 -121z m-1242 -195 c127 -40 291 -64 440 -64 l133 0 51 -78 c105
-159 232 -282 344 -333 44 -20 69 -24 148 -24 85 0 101 3 155 29 120 59 206
181 227 323 5 38 12 77 14 88 3 19 11 20 221 19 195 -1 224 -4 277 -22 58 -21
73 -29 65 -35 -12 -10 -331 -188 -369 -207 -24 -13 -76 -33 -114 -46 -38 -13
-87 -35 -110 -48 -63 -37 -539 -525 -641 -656 -111 -142 -594 -751 -607 -765
-7 -7 -8 16 -4 65 3 41 15 188 26 325 23 288 25 316 45 563 19 227 19 212 -5
212 -11 0 -20 -5 -20 -11 0 -6 -11 -147 -25 -313 -13 -165 -33 -422 -45 -571
-11 -148 -22 -285 -24 -303 -4 -36 -17 -58 -68 -116 l-33 -38 -60 25 c-145 61
-244 73 -303 37 -68 -41 -266 -265 -359 -407 -22 -32 -42 -53 -52 -51 -8 2
-29 23 -46 46 -27 40 -30 50 -29 120 1 133 79 535 270 1397 63 286 126 554
140 596 26 81 69 150 119 191 36 30 124 77 145 77 8 1 51 -11 94 -25z m2156
-127 c0 -27 -58 -93 -213 -244 l-156 -152 -38 15 c-21 9 -59 27 -84 40 -48 24
-59 23 -59 -5 0 -10 29 -28 81 -51 78 -34 82 -37 111 -94 16 -32 27 -60 25
-63 -3 -2 -54 18 -115 45 -93 42 -112 47 -117 34 -8 -20 -9 -20 138 -87 124
-57 130 -61 152 -106 13 -26 22 -49 19 -51 -2 -3 -68 19 -145 49 -77 29 -144
51 -149 48 -27 -17 4 -36 150 -90 88 -33 160 -64 160 -68 0 -22 -67 -132 -105
-172 -43 -46 -80 -58 -92 -29 -4 10 10 32 41 63 35 36 43 50 34 59 -9 9 -27
-3 -78 -51 -71 -67 -203 -143 -299 -171 -61 -18 -217 -22 -269 -7 -24 7 -34 7
-37 -2 -2 -7 -27 -93 -55 -192 -211 -728 -453 -1276 -637 -1446 -76 -68 -218
-162 -288 -188 -70 -26 -156 -27 -210 -2 -57 27 -149 126 -181 194 -66 146
-30 366 78 471 78 76 497 591 986 1213 152 193 225 274 428 477 252 253 277
273 394 311 70 23 155 65 311 156 118 69 195 108 212 109 4 0 7 -6 7 -13z
m109 -95 c48 -50 76 -97 199 -340 l144 -283 -6 -57 c-3 -31 -8 -97 -12 -147
-18 -278 -44 -487 -61 -509 -10 -13 -52 -64 -93 -114 l-75 -90 -22 131 c-46
278 -198 837 -228 837 -24 0 -25 -15 -4 -81 115 -373 209 -779 209 -906 0 -33
-8 -56 -29 -86 -48 -70 -82 -146 -88 -195 -6 -55 32 -181 98 -321 l39 -85 6
-450 c5 -431 7 -457 31 -581 14 -71 26 -168 27 -215 l1 -84 -40 -22 c-107 -60
-499 -146 -865 -191 -204 -25 -716 -25 -877 -1 -264 40 -464 99 -658 193 -116
56 -226 130 -245 165 -19 35 33 173 74 197 21 13 62 83 96 164 l31 75 61 13
c54 11 67 19 113 66 29 31 81 69 119 89 94 49 220 141 272 199 104 115 218
327 339 627 74 184 211 586 278 814 l43 150 109 -3 c135 -2 193 12 326 80 93
48 100 50 121 35 52 -37 109 -11 172 78 25 35 57 88 71 119 30 64 34 46 -61
253 l-66 143 159 155 c88 85 172 173 188 195 15 23 32 41 37 41 6 0 35 -26 67
-58z m252 -1523 c-52 -282 1 -513 152 -664 81 -81 176 -142 233 -151 24 -3 44
-10 44 -14 0 -5 -25 -31 -56 -58 -78 -70 -162 -113 -233 -119 -56 -5 -59 -4
-101 33 -76 69 -175 237 -253 429 -79 195 -80 226 -15 343 51 91 234 329 245
318 2 -2 -5 -55 -16 -117z m-2553 -258 c45 -18 82 -36 82 -41 0 -11 -183 -233
-256 -310 -78 -83 -109 -156 -120 -287 -13 -140 27 -253 123 -355 72 -75 138
-108 216 -108 53 0 58 -2 46 -16 -37 -44 -164 -68 -307 -57 l-84 6 -225 222
-226 223 6 42 c14 110 350 574 495 686 45 34 50 36 107 31 33 -2 97 -19 143
-36z m-112 -8717 l52 -5 -15 -62 c-8 -34 -61 -269 -119 -522 l-105 -460 31
-210 c30 -216 46 -355 39 -355 -2 0 -28 9 -57 20 -119 46 -268 45 -415 0 -34
-11 -62 -18 -63 -17 -1 1 14 67 33 147 l35 145 -11 161 c-6 88 -18 345 -26
570 -8 225 -16 453 -18 508 l-4 98 296 -6 c163 -4 319 -9 347 -12z m2299 -451
l7 -458 29 -56 c41 -83 158 -253 232 -340 74 -87 112 -118 232 -194 l88 -55
-49 -21 c-47 -21 -54 -22 -184 -10 -189 16 -866 113 -878 126 -2 2 4 61 13
132 9 70 17 184 18 253 0 118 -3 136 -51 330 -28 113 -82 324 -121 469 -39
146 -69 266 -68 267 3 3 711 20 718 17 3 -1 10 -208 14 -460z m-262 -1093
c271 -42 520 -75 657 -85 93 -8 156 4 202 36 l27 19 146 -87 c257 -154 309
-210 229 -248 -73 -34 -189 -47 -434 -49 -250 -1 -274 2 -524 61 -106 25 -113
25 -229 13 -237 -25 -348 -14 -363 34 -16 49 8 346 28 346 5 0 123 -18 261
-40z m-2248 -81 c33 -10 71 -26 84 -35 23 -17 24 -19 18 -128 -14 -248 -87
-497 -176 -599 -67 -76 -179 -109 -249 -73 -66 34 -150 169 -173 278 -24 112
14 495 52 519 22 14 145 51 202 59 69 11 167 2 242 -21z"/>
<path d="M7706 16470 c-58 -23 -78 -40 -67 -58 6 -10 20 -7 64 13 30 14 77 27
104 29 36 2 49 7 51 19 3 14 -5 17 -50 17 -29 -1 -75 -10 -102 -20z"/>
<path d="M7733 16313 c-21 -32 -23 -116 -5 -150 8 -15 22 -23 38 -23 51 0 72
133 27 182 -22 25 -40 23 -60 -9z"/>
<path d="M7603 15799 c-9 -9 -3 -19 25 -42 66 -53 164 -82 239 -71 33 5 43 10
41 23 -3 13 -13 15 -50 13 -62 -5 -144 20 -196 58 -48 35 -45 33 -59 19z"/>
<path d="M8796 14584 c-4 -9 -5 -18 -4 -19 11 -8 105 -25 142 -25 36 0 52 -6
79 -30 48 -42 79 -119 83 -205 2 -51 7 -71 17 -73 33 -7 28 128 -7 212 -22 53
-71 112 -103 124 -16 6 -59 13 -98 15 -38 3 -77 8 -86 12 -10 4 -19 0 -23 -11z"/>
<path d="M7905 12444 c-71 -57 -214 -170 -317 -251 -118 -93 -184 -151 -181
-160 8 -19 22 -16 62 14 34 26 520 409 569 449 16 13 21 25 17 37 -4 9 -10 17
-14 17 -3 -1 -64 -48 -136 -106z"/>
<path d="M7940 12230 c-169 -156 -204 -197 -175 -207 15 -4 380 336 380 355 0
8 -5 17 -10 19 -6 2 -94 -74 -195 -167z"/>
<path d="M7200 11894 c-30 -24 -81 -61 -112 -82 -57 -36 -69 -54 -47 -68 11
-6 111 58 202 129 39 31 46 41 36 53 -16 19 -16 19 -79 -32z"/>
<path d="M17475 16666 c-80 -80 -55 -339 104 -1106 84 -407 115 -570 108 -577
-3 -2 -28 -8 -57 -12 -36 -6 -53 -5 -55 3 -78 279 -144 410 -222 442 -44 19
-160 18 -221 -2 -58 -19 -116 -63 -137 -105 -9 -16 -20 -72 -25 -125 -5 -53
-11 -98 -13 -101 -3 -2 -20 3 -38 13 -18 9 -60 19 -94 21 -51 4 -65 2 -95 -19
-19 -13 -46 -44 -60 -68 -22 -40 -25 -57 -25 -146 l0 -100 -69 -33 c-80 -38
-148 -102 -166 -157 -10 -28 -11 -91 -7 -249 10 -365 77 -835 154 -1080 32
-102 121 -276 173 -339 42 -51 106 -106 123 -106 6 0 8 -82 5 -225 -3 -204 -2
-225 13 -225 23 0 29 64 28 290 l0 185 -42 21 c-58 28 -127 117 -192 246 -60
119 -82 186 -120 362 -55 253 -104 685 -108 936 -2 174 3 191 68 249 38 33
125 81 148 81 8 0 46 -70 92 -172 98 -216 247 -516 291 -586 56 -86 120 -111
201 -77 45 19 43 19 43 -8 0 -16 -20 -37 -72 -77 -100 -76 -316 -293 -362
-364 -31 -46 -36 -60 -25 -67 21 -13 22 -13 54 38 41 65 201 231 314 325 52
43 97 78 100 78 11 0 28 -49 20 -57 -9 -9 -119 -298 -119 -313 0 -5 8 -10 18
-10 13 0 30 35 72 145 30 80 57 145 60 145 4 0 18 -12 33 -28 l26 -27 -31 -50
c-17 -28 -43 -81 -56 -120 -57 -163 -13 -384 103 -513 69 -77 235 -153 235
-108 0 9 -8 19 -17 23 -101 34 -184 94 -229 165 -13 21 -36 73 -51 115 -49
144 -30 297 52 421 l27 41 59 -44 c97 -72 308 -197 319 -190 20 12 9 30 -33
54 -126 71 -328 214 -378 269 -68 73 -82 117 -78 239 4 78 8 95 32 131 36 54
90 89 161 104 52 11 61 11 91 -7 19 -11 154 -132 300 -268 147 -136 272 -246
278 -244 6 2 12 8 14 13 2 6 -99 105 -224 221 -126 116 -247 231 -269 255
l-41 43 -37 330 c-21 182 -38 337 -39 345 -2 17 43 27 164 36 82 7 166 -11
225 -47 27 -16 33 -17 43 -5 9 11 6 18 -18 35 -46 33 -108 52 -195 59 l-79 7
-22 130 c-13 72 -57 297 -99 500 -108 520 -130 657 -130 836 -1 131 1 149 18
168 39 43 132 17 205 -60 103 -105 192 -361 395 -1129 148 -563 144 -544 160
-791 39 -594 47 -854 37 -1094 -12 -264 -21 -295 -134 -471 -46 -71 -89 -138
-94 -149 -6 -11 -16 -133 -22 -270 -6 -138 -13 -276 -15 -307 -4 -51 -2 -58
14 -58 15 0 19 11 24 73 6 71 26 470 26 512 0 12 37 77 81 146 136 207 146
240 160 524 10 225 4 405 -32 990 l-20 330 -100 390 c-99 385 -218 810 -279
995 -43 134 -111 268 -165 327 -84 95 -207 132 -260 79z m-105 -1311 c45 -42
93 -144 135 -280 30 -99 41 -166 75 -460 22 -189 40 -345 40 -347 0 -2 -30 -4
-68 -4 -146 0 -271 -113 -272 -247 0 -47 -1 -48 -42 -67 -114 -52 -134 -30
-313 335 -202 410 -249 524 -248 600 1 71 33 156 69 180 44 28 171 8 207 -33
11 -13 127 -340 302 -849 2 -7 9 -13 15 -13 33 0 26 23 -190 640 l-82 235 6
80 c12 150 16 164 53 200 50 49 102 65 200 62 76 -2 84 -4 113 -32z"/>
<path d="M3334 15706 c-113 -32 -502 -196 -907 -382 -432 -199 -784 -385 -823
-435 -6 -8 -62 -240 -123 -516 -183 -826 -268 -1173 -317 -1294 -30 -73 -30
-108 -2 -144 59 -75 216 -72 341 7 92 58 136 153 162 346 10 72 32 163 56 237
51 154 52 155 81 128 54 -49 108 -68 198 -68 69 0 97 5 149 27 l63 27 -6 -27
c-4 -15 -9 -85 -12 -157 -7 -146 6 -224 53 -323 54 -115 158 -193 237 -178 94
18 191 225 277 596 l34 145 205 208 c112 114 253 249 312 299 135 115 221 220
317 390 l32 58 42 -24 c404 -229 505 -286 518 -291 9 -3 21 0 27 8 10 11 -40
43 -276 177 -158 89 -288 163 -290 165 -2 1 23 57 54 125 46 97 55 123 44 130
-11 7 -34 -31 -103 -163 -163 -317 -224 -402 -383 -536 -54 -46 -196 -182
-314 -301 l-215 -217 -34 -139 c-73 -302 -165 -539 -224 -574 -43 -27 -65 -25
-118 9 -138 87 -194 332 -139 608 33 165 133 486 214 688 20 49 35 90 33 91
-6 7 -472 -127 -479 -138 -31 -45 -243 -486 -285 -593 -64 -162 -88 -251 -107
-385 -32 -224 -81 -302 -221 -351 -100 -35 -207 -18 -221 35 -3 14 8 64 30
127 55 161 218 847 371 1559 21 96 44 185 51 197 23 37 166 118 479 273 458
226 1063 489 1233 536 58 16 76 17 190 5 142 -14 411 -60 706 -121 130 -27
202 -38 208 -32 15 15 2 29 -29 34 -16 3 -138 28 -273 56 -446 92 -718 125
-816 98z m-904 -1360 c0 -2 -25 -72 -56 -157 -31 -85 -76 -226 -101 -314 -25
-88 -47 -166 -49 -173 -2 -7 -33 -27 -69 -44 -77 -36 -171 -47 -231 -28 -54
18 -113 61 -120 88 -5 16 27 91 119 275 l125 253 183 51 c192 54 199 55 199
49z"/>
<path d="M2247 14273 c-4 -3 -7 -31 -7 -61 0 -69 -24 -163 -58 -225 -20 -38
-23 -50 -13 -60 15 -14 33 6 62 69 44 98 68 284 36 284 -8 0 -17 -3 -20 -7z"/>
<path d="M16472 14402 c-25 -16 136 -343 223 -454 67 -86 136 -107 220 -69 46
21 95 73 95 102 0 28 -23 23 -49 -12 -32 -43 -79 -69 -125 -69 -34 0 -46 7
-87 49 -53 56 -147 217 -211 362 -23 55 -45 99 -48 99 -3 0 -11 -4 -18 -8z"/>
<path d="M996 11064 c-111 -35 -192 -168 -167 -277 22 -95 148 -252 452 -562
l207 -210 62 -235 c125 -476 274 -970 321 -1063 11 -20 53 -86 93 -145 92
-134 101 -152 167 -344 42 -123 58 -158 72 -158 9 0 17 5 17 10 0 6 -25 83
-56 173 -60 175 -93 241 -179 361 -31 43 -64 95 -75 116 -50 97 -179 523 -319
1048 l-70 264 -223 227 c-226 229 -381 410 -418 486 -38 79 -16 163 61 228 69
59 162 72 238 33 38 -20 180 -168 348 -361 236 -274 254 -299 260 -349 l4 -45
-73 -21 c-40 -12 -90 -26 -110 -32 -26 -8 -38 -17 -38 -30 0 -23 0 -23 116 11
54 16 101 28 105 25 4 -2 10 -25 14 -51 9 -63 50 -192 86 -271 50 -112 135
-229 247 -341 168 -169 250 -196 394 -130 63 30 82 49 58 64 -5 3 -36 -8 -69
-25 -118 -59 -193 -37 -335 100 -208 199 -324 424 -356 692 l-11 97 27 43 c47
74 88 119 131 144 35 21 54 25 133 25 51 0 93 -1 95 -3 1 -2 34 -104 74 -228
100 -314 209 -626 237 -682 60 -119 133 -160 279 -159 155 2 248 30 276 83 18
34 -11 42 -42 12 -38 -37 -110 -55 -224 -56 -112 -1 -145 9 -193 55 -55 53
-87 130 -234 571 l-140 421 42 37 c91 81 171 103 390 110 l115 3 7 -235 c6
-243 23 -478 39 -564 5 -27 21 -70 36 -95 37 -65 191 -217 244 -241 78 -35
156 -21 193 35 53 81 77 346 61 678 -6 136 -9 157 -24 157 -14 0 -16 -30 -16
-317 0 -275 -3 -329 -19 -397 -28 -121 -77 -158 -163 -125 -52 20 -134 90
-197 171 -52 65 -66 90 -75 136 -15 81 -30 280 -41 557 -8 210 -7 241 6 256 9
10 50 34 92 55 58 28 93 38 142 41 60 4 69 2 111 -26 26 -17 64 -51 86 -74 44
-47 186 -273 245 -387 45 -88 98 -246 98 -293 0 -29 -6 -35 -70 -70 -72 -39
-78 -45 -59 -64 8 -8 26 -2 68 23 31 19 61 34 67 34 6 0 64 62 130 137 165
191 393 418 491 491 99 72 130 81 314 89 263 11 265 -27 18 -338 -162 -205
-227 -304 -314 -486 -144 -300 -301 -534 -608 -905 -198 -240 -177 -191 -208
-471 -34 -298 -34 -287 -9 -287 11 0 20 6 20 14 0 8 12 122 26 253 29 275 16
242 175 433 326 389 492 635 640 946 84 177 135 256 301 467 184 233 221 305
188 367 -21 39 -90 53 -233 47 -242 -10 -280 -31 -543 -292 -105 -104 -227
-231 -271 -281 l-81 -91 -21 81 c-28 105 -96 246 -206 426 -103 167 -138 209
-219 262 -49 32 -68 38 -111 38 -71 0 -147 -24 -230 -73 l-70 -41 -163 -8
c-213 -10 -295 -37 -391 -127 -32 -30 -35 -31 -130 -31 -71 0 -106 -5 -136
-19 -42 -19 -118 -94 -150 -148 -11 -18 -22 -33 -26 -33 -4 0 -24 21 -45 48
-110 136 -342 400 -434 493 -85 86 -114 109 -154 123 -60 19 -105 19 -170 0z"/>
<path d="M16297 10856 c-106 -39 -134 -141 -81 -289 119 -328 299 -1086 309
-1300 26 -525 38 -652 74 -747 10 -25 48 -97 87 -160 l69 -115 -1 -327 c-1
-302 0 -328 16 -328 15 0 17 22 23 218 4 119 7 264 7 322 0 116 3 108 -113
305 -78 134 -97 248 -117 706 -9 220 -11 234 -65 490 -81 377 -148 638 -216
840 -69 205 -75 259 -34 308 50 58 133 64 161 10 10 -21 340 -770 380 -865 3
-6 -21 -26 -53 -44 -80 -45 -163 -108 -163 -124 0 -28 26 -22 70 14 25 20 72
52 104 70 53 30 60 31 71 17 10 -13 14 -5 24 48 14 70 58 171 97 222 53 70
171 109 248 83 39 -13 91 -51 106 -79 5 -10 47 -218 94 -462 105 -543 92 -488
114 -482 17 4 17 14 -15 181 -72 376 -144 748 -149 764 -8 27 53 85 130 124
101 49 187 62 290 41 43 -9 83 -21 90 -26 13 -11 22 -151 9 -151 -5 0 -25 11
-45 25 -111 75 -261 -23 -261 -172 0 -79 41 -152 138 -248 l81 -80 24 -152
c13 -84 27 -158 31 -164 11 -18 38 -3 33 18 -10 49 -44 266 -42 269 2 1 30
-14 63 -35 l60 -39 24 -112 c12 -61 21 -113 19 -114 -1 -1 -41 -10 -88 -20
-213 -45 -447 -143 -547 -231 -102 -89 -137 -224 -93 -355 29 -86 97 -187 173
-255 53 -49 63 -54 73 -40 10 13 2 25 -48 73 -123 117 -184 238 -176 352 10
140 94 225 317 320 94 41 266 92 374 111 61 11 68 15 63 33 -2 12 -17 78 -32
147 l-27 126 -46 24 c-160 84 -310 237 -335 342 -16 66 42 165 110 187 30 10
40 9 72 -9 76 -43 172 -85 367 -161 170 -67 202 -76 211 -64 14 17 5 35 79
-171 88 -249 92 -380 17 -557 -71 -164 -331 -719 -394 -838 l-60 -115 -12
-294 c-9 -239 -9 -294 2 -299 7 -2 16 -1 20 2 4 4 12 136 18 294 l12 287 40
75 c46 84 271 560 383 811 l74 164 -1 155 0 155 -66 187 c-128 360 -207 540
-254 577 -61 48 -177 51 -286 7 -54 -22 -60 -23 -110 -9 -62 16 -213 18 -272
2 -64 -17 -173 -78 -205 -115 -26 -29 -31 -31 -42 -18 -48 58 -191 77 -280 37
-61 -27 -119 -90 -158 -169 -17 -35 -31 -68 -31 -74 0 -36 -30 23 -139 273
-234 535 -251 572 -270 584 -31 20 -84 23 -124 9z m1862 -542 c31 -12 45 -27
69 -72 36 -68 134 -303 130 -313 -4 -10 -441 156 -468 178 -2 2 2 8 9 13 11 6
13 25 8 84 -8 86 -6 89 88 112 70 17 118 17 164 -2z"/>
<path d="M16923 9922 c-19 -12 189 -662 245 -765 38 -70 83 -90 151 -66 20 7
31 18 31 31 0 14 -5 18 -17 14 -86 -25 -105 -16 -144 69 -28 61 -161 457 -214
638 -26 88 -30 93 -52 79z"/>
<path d="M2709 9373 c-49 -129 -85 -326 -74 -403 21 -139 189 -284 392 -335
89 -23 176 -25 181 -4 2 13 -10 17 -65 22 -132 13 -277 76 -370 161 -100 91
-118 165 -84 331 11 55 31 132 45 172 21 61 22 72 9 77 -22 9 -23 8 -34 -21z"/>
<path d="M2792 6631 c-60 -22 -73 -34 -463 -410 -209 -201 -297 -278 -369
-325 -132 -86 -190 -158 -190 -233 0 -26 -18 -118 -144 -731 -92 -443 -121
-683 -141 -1147 -12 -281 -18 -362 -35 -456 -15 -87 -16 -99 -2 -104 8 -3 17
-4 19 -2 16 16 43 259 53 462 27 619 41 738 146 1245 77 369 134 651 134 656
0 3 6 4 13 2 8 -2 164 144 348 323 444 433 597 576 635 594 86 41 174 4 611
-256 206 -124 214 -131 380 -362 l106 -148 -6 -60 c-3 -33 -13 -71 -22 -85
-26 -41 -98 -67 -185 -68 -64 -1 -84 3 -135 28 l-60 30 66 6 c116 11 243 109
212 164 -4 8 -104 116 -222 240 -204 215 -216 226 -260 233 -25 4 -154 8 -286
8 -209 0 -245 -2 -275 -18 -40 -19 -175 -133 -330 -277 -211 -196 -366 -332
-420 -368 -30 -21 -69 -58 -86 -83 -34 -51 -79 -182 -70 -205 11 -30 27 -8 54
72 31 93 64 145 106 170 42 25 137 106 320 273 222 204 374 337 420 369 l39
27 251 0 c138 0 263 -3 277 -7 16 -5 111 -96 238 -229 241 -251 233 -234 131
-296 -43 -26 -65 -33 -107 -33 -72 0 -149 31 -214 87 -69 59 -157 100 -259
120 -98 20 -118 13 -160 -53 -39 -62 -126 -270 -151 -361 -15 -53 -17 -77 -10
-92 20 -36 319 -258 417 -309 12 -7 41 -47 65 -89 73 -134 213 -343 229 -343
3 0 11 4 18 9 11 6 6 19 -23 57 -95 123 -234 360 -219 373 5 4 36 29 69 56
137 113 223 206 280 299 l56 93 81 11 c138 20 188 64 206 182 l8 55 54 -2
c104 -5 150 -32 150 -89 0 -59 -140 -566 -175 -634 -16 -31 -199 -206 -441
-421 -111 -99 -185 -174 -235 -239 -176 -229 -322 -391 -418 -460 -34 -25
-110 -63 -178 -90 -65 -26 -130 -53 -145 -60 -31 -15 -31 -13 -54 -299 -14
-171 -14 -205 -3 -212 8 -5 16 -3 20 4 3 7 14 111 24 232 15 189 20 222 36
237 11 9 73 37 138 63 148 57 192 86 308 203 82 83 312 357 346 413 6 11 113
111 237 222 305 273 367 334 395 381 42 74 185 586 185 664 0 78 -75 125 -198
123 -33 0 -54 4 -57 12 -50 146 -106 291 -141 364 l-44 91 -117 75 c-191 120
-354 213 -488 279 -118 58 -131 62 -208 65 -63 3 -94 -1 -135 -16z m335 -89
c133 -67 368 -203 500 -288 73 -47 86 -60 114 -115 35 -70 101 -240 96 -246
-2 -2 -16 14 -30 36 -14 22 -62 83 -105 138 -77 94 -85 101 -228 188 -245 147
-454 263 -508 281 -28 10 -79 18 -112 18 -50 1 -68 -4 -97 -24 -38 -28 -312
-286 -696 -659 -243 -236 -251 -242 -251 -210 0 39 29 94 68 127 15 13 70 52
122 87 71 48 179 144 426 383 372 359 364 353 499 349 76 -2 86 -5 202 -65z
m-55 -743 c94 -19 189 -72 283 -158 59 -54 112 -92 165 -118 l78 -38 -53 -89
c-52 -87 -160 -198 -298 -308 l-49 -38 -41 25 c-81 47 -273 184 -326 233 l-55
48 37 106 c42 123 126 305 151 331 20 20 36 21 108 6z"/>
<path d="M17480 6348 c-83 -15 -193 -113 -229 -204 l-13 -32 -151 -4 c-132 -3
-158 -6 -197 -25 -49 -25 -81 -65 -108 -136 -10 -26 -20 -49 -23 -52 -3 -3
-41 -14 -85 -26 -164 -43 -288 -121 -325 -204 -21 -48 -52 -231 -76 -445 -13
-114 -17 -241 -18 -485 0 -393 2 -406 104 -600 l68 -130 17 -200 c27 -323 26
-315 48 -315 18 0 20 5 15 43 -4 23 -14 141 -23 262 l-17 220 -73 140 c-96
184 -104 227 -104 569 0 393 49 838 104 945 32 61 154 126 306 165 l94 24 12
40 c18 64 62 130 97 149 26 15 62 18 197 20 l165 3 13 37 c17 51 79 131 127
165 86 58 180 54 310 -16 78 -41 80 -43 92 -91 7 -27 11 -51 9 -53 -3 -2 -70
21 -151 52 -97 37 -154 54 -170 50 -41 -10 -103 -72 -134 -136 -37 -74 -41
-149 -11 -216 38 -83 192 -218 368 -322 82 -49 79 -39 53 -180 l-17 -95 -79
-43 c-44 -24 -118 -66 -164 -93 -46 -27 -85 -48 -86 -47 -1 2 -7 80 -13 173
-13 189 -39 368 -78 544 -44 203 -44 200 -71 183 -10 -6 -9 -20 2 -62 69 -257
135 -761 112 -852 -4 -14 -34 -43 -79 -74 l-73 -51 -73 8 c-49 5 -88 17 -123
35 -47 26 -50 30 -45 59 3 16 8 77 12 135 6 94 4 116 -21 215 -27 109 -111
351 -124 359 -4 3 -13 1 -20 -3 -10 -6 -2 -38 34 -136 72 -199 95 -296 95
-401 0 -150 -53 -315 -105 -328 -52 -13 -156 48 -203 120 -17 25 -41 76 -53
112 -46 143 -121 322 -134 322 -25 0 -23 -14 10 -98 19 -46 50 -131 70 -190
45 -131 70 -176 130 -231 55 -51 103 -73 162 -74 50 0 75 18 105 78 11 22 22
41 23 43 1 1 26 -9 56 -23 30 -13 75 -28 102 -31 26 -4 47 -10 47 -13 0 -4
-13 -17 -29 -28 -15 -12 -42 -43 -60 -69 -28 -43 -31 -55 -31 -127 0 -61 7
-99 29 -166 48 -140 98 -220 123 -195 4 3 -11 40 -32 82 -69 140 -99 262 -80
331 20 76 133 176 358 315 64 40 167 99 227 131 61 32 111 59 112 60 1 0 11
55 23 120 11 66 23 129 25 141 4 17 -9 28 -70 63 -166 94 -336 236 -376 313
-38 74 -18 173 51 252 60 68 42 71 380 -62 41 -16 153 -60 248 -97 196 -76
204 -82 253 -210 65 -167 99 -321 119 -543 9 -99 10 -144 2 -171 -18 -57 -199
-323 -476 -696 -85 -114 -124 -175 -120 -187 3 -9 -4 -34 -15 -55 -17 -35 -19
-64 -23 -308 -3 -242 -1 -270 13 -273 14 -3 17 26 24 265 l7 268 69 130 c43
81 123 202 209 320 247 337 334 470 349 537 13 55 -1 207 -44 515 -40 282 -66
414 -106 539 -45 141 -88 191 -176 204 -60 10 -166 -5 -261 -35 l-73 -23 -44
29 c-52 35 -154 74 -210 81 -22 2 -60 1 -85 -4z m723 -105 c47 -24 96 -147
137 -348 26 -126 25 -132 -10 -59 -16 33 -38 68 -49 78 -11 10 -109 53 -218
96 l-198 78 -14 57 c-17 69 -19 66 99 94 135 33 195 33 253 4z"/>
<path d="M2724 5223 c-6 -41 -7 -240 -2 -808 1 -92 -2 -110 -40 -223 -45 -134
-148 -346 -193 -397 -45 -50 -200 -107 -369 -135 -100 -16 -99 -16 -93 -38 4
-19 8 -19 81 -5 231 42 374 99 423 166 48 65 156 292 188 392 49 152 55 219
41 388 -9 105 -11 230 -6 428 5 241 4 279 -8 279 -10 0 -17 -16 -22 -47z"/>
</g>
</svg>
